<svg width="752" height="164" viewBox="0 0 752 164" fill="none" xmlns="http://www.w3.org/2000/svg">
<path d="M181.812 36.953V131.666L106.344 36.953H91.6194V164H109.574V69.2444L185.043 163.958H199.767V36.953H181.812Z" fill="#2F2D2D"/>
<path d="M407.085 36.953H392.361L340.594 126.242L288.156 36.953H273.432V164H290.673V71.9566L336.147 148.532H344.412L389.844 71.4057L390.011 163.958H407.253L407.085 36.953Z" fill="#2F2D2D"/>
<path d="M536.627 36.953H518.841L461.872 163.958H480.372L494.216 132.217H561.043L574.886 163.958H593.764L536.627 36.953ZM500.508 117.682L527.65 55.4295L554.792 117.682H500.508Z" fill="#2F2D2D"/>
<path d="M722.173 121.326C731.025 118.19 737.863 113.147 742.645 106.282C747.427 99.3747 749.819 91.0264 749.819 81.2372C749.819 67.4222 745.162 56.616 735.807 48.7339C726.452 40.8941 713.658 36.953 697.381 36.953H648.341V164H666.296V125.352H697.381C699.311 125.352 701.911 125.225 705.267 124.971L732.409 164H752L722.173 121.326ZM696.835 109.884H666.296V52.7173H696.835C708.204 52.7173 716.888 55.1752 722.887 60.0486C728.885 64.9643 731.864 71.999 731.864 81.1948C731.864 90.3907 728.885 97.4677 722.887 102.426C716.888 107.426 708.246 109.884 696.835 109.884Z" fill="#2F2D2D"/>
<path d="M17.9547 0H0V18.1375H17.9547V0Z" fill="#2F2D2D"/>
<path d="M17.9547 37.0801H0V163.958H17.9547V37.0801Z" fill="#2F2D2D"/>
<path d="M751.874 0H0V18.1375H751.874V0Z" fill="#2F2D2D"/>
</svg>
